<svg width="64" height="76" viewBox="0 0 64 76" fill="none" xmlns="http://www.w3.org/2000/svg">
<path d="M23.1023 15.9022L25.4063 19.4575C20.3367 22.2914 17.2453 25.529 15.3163 28.664C13.33 31.8923 12.5936 34.9843 12.1769 37.3497L12.0015 38.3452L12.8992 37.8805C14.4924 37.0557 16.6165 36.753 18.7316 36.9495L18.7317 36.9495C24.1987 37.4556 28.4935 41.9399 28.4935 47.5001C28.4935 50.307 27.3785 52.9989 25.3937 54.9837C23.4095 56.9679 20.7184 58.0829 17.9123 58.0835C16.3538 58.0695 14.8136 57.7459 13.3812 57.1314C11.9492 56.517 10.6537 55.6241 9.56977 54.5046C6.40158 51.1386 4.69531 47.378 4.69531 41.2016C4.69531 30.4904 12.1344 20.8113 23.1023 15.9022Z" stroke="white"/>
<path d="M53.239 15.9022L55.543 19.4575C50.4734 22.2914 47.382 25.529 45.453 28.664C43.4667 31.8923 42.7303 34.9843 42.3136 37.3497L42.1383 38.3452L43.0359 37.8805C44.6291 37.0557 46.7532 36.753 48.8683 36.9495L48.8684 36.9495C54.3354 37.4556 58.6302 41.9399 58.6302 47.5001C58.6302 50.307 57.5152 52.9989 55.5304 54.9837C53.5462 56.9679 50.8551 58.0829 48.0491 58.0835C46.4905 58.0695 44.9503 57.7459 43.518 57.1314C42.086 56.517 40.7904 55.6241 39.7065 54.5046C36.5383 51.1386 34.832 47.378 34.832 41.2016C34.832 30.4904 42.2711 20.8113 53.239 15.9022Z" stroke="white"/>
</svg>
