<svg width="46" height="76" viewBox="0 0 46 76" fill="none" xmlns="http://www.w3.org/2000/svg">
<path d="M35.239 15.9022L37.543 19.4575C32.4734 22.2914 29.382 25.529 27.453 28.664C25.4667 31.8923 24.7303 34.9843 24.3136 37.3497L24.1383 38.3452L25.0359 37.8805C26.6291 37.0557 28.7532 36.753 30.8683 36.9495L30.8684 36.9495C36.3354 37.4556 40.6302 41.9399 40.6302 47.5001C40.6302 50.307 39.5152 52.9989 37.5304 54.9837C35.5462 56.9679 32.8551 58.0829 30.0491 58.0835C28.4905 58.0695 26.9503 57.7459 25.518 57.1314C24.086 56.517 22.7905 55.6242 21.7066 54.5048C18.5383 51.1387 16.832 47.3781 16.832 41.2016C16.832 30.4904 24.2711 20.8113 35.239 15.9022Z" stroke="white"/>
</svg>
